<?xml version="1.0" standalone="yes"?>
<svg width="542" height="313">
<path style="fill:#b640ec; stroke:none;" d="M0 0L0 313L542 313L542 0L0 0z"/>
<path style="fill:#965bb7; stroke:none;" d="M443 56L443 57L456 57L443 56z"/>
<path style="fill:#fffdff; stroke:none;" d="M443 235C432.38 234.774 422.029 228.589 413 223.421C393.372 212.188 374.761 198.768 357 184.789C349.456 178.852 332.862 169.599 336.971 158C344.145 137.748 370.579 124.715 384.985 109.999C391.88 102.957 399.196 92.3862 394.991 82C392.036 74.7025 384.024 70.0307 377 67.3727C359.347 60.6928 323.376 57.128 314.228 79C308.974 91.5632 313.511 112.796 314.831 126C317.911 156.805 319.672 188.086 321 219L320 219C315.617 210.506 308.01 203.141 301.715 196C299.155 193.097 294.498 189.889 293.498 186C291.961 180.019 299.372 166.635 300.536 160C303.971 140.426 296.081 117.845 281.961 104.09C260.652 83.3324 223.692 82.1517 200 99.5833C192.422 105.159 186.386 119.104 178.621 122.788C169.941 126.907 155.692 116.718 146.019 119.434C140.628 120.949 139.06 128.959 144.148 131.972C150.699 135.851 164.322 134.511 172 136L161 176L160 176C159.352 171.675 157.772 167.869 155.737 164C154.206 161.09 152.426 158.42 149.957 156.214C126.844 135.562 118.975 181.819 110 192C108.052 168.149 90.3549 142.126 72.9961 126.715C69.0058 123.173 47.2619 102.297 44.3619 117.019C42.6257 125.833 62.5447 136.185 67.8302 142.001C88.6498 164.909 101.038 194.826 101 226C100.993 232.043 96.9914 249.487 108.956 246.547C115.98 244.821 115.942 229.831 117.374 224C121.701 206.381 125.486 177.526 141 166C147.753 184.586 153.741 202.068 155.83 222C156.452 227.932 155.137 239.813 162.044 242.392C169.532 245.189 170.989 237.333 171 232C171.041 211.98 174.15 192.8 175 173L176 173C179.545 208.369 225.561 228.406 256 217.997C265.406 214.78 277.616 208.323 282 199C294.498 204.828 304.22 221.589 312.92 232C316.559 236.355 320.986 243.395 327.003 244.537C335.432 246.136 335 236.509 335 231C335.001 215.297 333 199.733 333 184C359.262 205.314 386.934 228.396 418 242.413C428.082 246.962 446.997 255.354 454.427 241.957C459.726 232.404 454.226 218.14 450.6 209C440.453 183.429 427.54 159.245 419 133C453.309 165.737 510.103 126.945 491.535 83C473.978 41.4456 411.163 53.8904 402.453 95C395.173 129.36 415.579 165.708 429.175 196C434.695 208.298 441.915 221.363 443 235z"/>
<path style="fill:#a84fcf; stroke:none;" d="M336 62L336 63L361 63L361 61L336 62z"/>
<path style="fill:#daa8ed; stroke:none;" d="M342 62L342 63L355 63L342 62z"/>
<path style="fill:#b640ec; stroke:none;" d="M419 125C427.99 120.513 430.821 127.09 439 130.03C444.841 132.13 455.18 131.993 461 129.867C499.788 115.693 474.763 57.5553 437 73.4645C431.202 75.9071 426.3 80.172 422.329 85C417.676 90.6582 416.012 96.8194 416 104C415.988 111.257 414.856 118.721 419 125z"/>
<path style="fill:#a556d3; stroke:none;" d="M388 73C397.393 86.5053 395.536 90.3683 390 105C402.081 95.5322 395.906 83.0273 391 72L388 73z"/>
<path style="fill:#d287ee; stroke:none;" d="M342 76L342 77L353 77L342 76z"/>
<path style="fill:#b640ec; stroke:none;" d="M330 141C343.895 129.796 358.183 116.493 371 103.985C374.772 100.304 382.615 94.3073 381.577 88.1736C380.79 83.5237 373.867 81.019 370 79.7492C359.739 76.3797 336.56 72.6281 328.742 82.5185C325.701 86.3656 326.998 93.4081 327 98C327.006 112.358 329.881 126.643 330 141z"/>
<path style="fill:#b486c6; stroke:none;" d="M312 85L312 96L313 96L312 85z"/>
<path style="fill:#f5c3fe; stroke:none;" d="M232 87L232 88L244 88L232 87z"/>
<path style="fill:#efb7f8; stroke:none;" d="M326 87L326 96L327 96L326 87z"/>
<path style="fill:#925cb0; stroke:none;" d="M480 94L480 104L481 104L480 94z"/>
<path style="fill:#f7d2ff; stroke:none;" d="M234 100L234 101L254 103L234 100z"/>
<path style="fill:#975bb3; stroke:none;" d="M415 100L415 116L416 116L415 100z"/>
<path style="fill:#b640ec; stroke:none;" d="M194 128C213.769 133.719 232.735 142.129 250 153.343C259.688 159.636 271.086 171.967 282 175C289.051 153.322 288.262 128.363 269.996 112.185C248.172 92.8547 205.084 99.3419 194 128z"/>
<path style="fill:#e7befa; stroke:none;" d="M216 105L216 106L220 105L216 105z"/>
<path style="fill:#d885ed; stroke:none;" d="M313 107L313 112L314 112L313 107z"/>
<path style="fill:#e398f7; stroke:none;" d="M48 111L48 112L53 112L48 111z"/>
<path style="fill:#c982e2; stroke:none;" d="M328 118L328 123L329 123L328 118z"/>
<path style="fill:#e39af4; stroke:none;" d="M374 118L374 120L376 118L374 118z"/>
<path style="fill:#ae5fd6; stroke:none;" d="M153 119L153 120L181 122L153 119z"/>
<path style="fill:#ac65cd; stroke:none;" d="M66 120L76 129L66 120z"/>
<path style="fill:#d49fed; stroke:none;" d="M423 122L423 123L428 123L423 122z"/>
<path style="fill:#d1b0e9; stroke:none;" d="M140 123L140 128L141 128L140 123z"/>
<path style="fill:#deafe5; stroke:none;" d="M176 123L176 124L180 124L176 123z"/>
<path style="fill:#9c59c0; stroke:none;" d="M417 123L417 128C419.369 126.172 418.927 125.115 417 123z"/>
<path style="fill:#cc79eb; stroke:none;" d="M445 131L445 132L456 132L445 131z"/>
<path style="fill:#c984e1; stroke:none;" d="M147 133L147 134L155 134L147 133z"/>
<path style="fill:#dc97f4; stroke:none;" d="M315 133L315 139L316 139L315 133z"/>
<path style="fill:#d3a0e2; stroke:none;" d="M329 133L329 138L330 138L329 133z"/>
<path style="fill:#d9a3f1; stroke:none;" d="M157 134L157 135L165 135L157 134z"/>
<path style="fill:#e6b5f6; stroke:none;" d="M165 135L165 136L170 136L165 135z"/>
<path style="fill:#dba5f1; stroke:none;" d="M222 138L222 139L227 140L227 139L222 138z"/>
<path style="fill:#b640ec; stroke:none;" d="M186 140L177 170C189.331 163.354 193.902 182.331 200.439 189.996C210.69 202.018 225.35 208.007 241 206.91C250.663 206.233 259.749 202.023 266.995 195.7C269.639 193.393 273.657 189.978 271.338 186.174C267.067 179.166 255.8 173.141 249 168.783C229.798 156.477 208.584 144.699 186 140z"/>
<path style="fill:#975eaf; stroke:none;" d="M286 143L286 158L287 158L286 143z"/>
<path style="fill:#dab1f3; stroke:none;" d="M438 144L438 145L459 146L438 144z"/>
<path style="fill:#df9ff6; stroke:none;" d="M236.667 145.333L237.333 145.667L236.667 145.333z"/>
<path style="fill:#dba5f9; stroke:none;" d="M182.333 148.667L182.667 149.333L182.333 148.667z"/>
<path style="fill:#9555a3; stroke:none;" d="M301 148L301 156L302 156L301 148z"/>
<path style="fill:#d0a6e8; stroke:none;" d="M316 148L316 155L317 155L316 148z"/>
<path style="fill:#d896ed; stroke:none;" d="M409.333 148.667L409.667 149.333L409.333 148.667z"/>
<path style="fill:#d491ee; stroke:none;" d="M136 151L136 152L142 152L136 151z"/>
<path style="fill:#d291ed; stroke:none;" d="M317 163L317 171L318 171L317 163z"/>
<path style="fill:#e7b8ec; stroke:none;" d="M245 166L248 168L245 166z"/>
<path style="fill:#cf8bee; stroke:none;" d="M180 167L180 168L185 168L180 167z"/>
<path style="fill:#bd9cc9; stroke:none;" d="M176 169L176 173L177 173L176 169z"/>
<path style="fill:#9d62a4; stroke:none;" d="M175 173L177 180L175 173z"/>
<path style="fill:#d2a4e4; stroke:none;" d="M318 179L318 187L319 187L318 179z"/>
<path style="fill:#a958d0; stroke:none;" d="M333 184L334 212L335 212L335 189L367 211C358.963 201.127 344.031 190.369 333 184z"/>
<path style="fill:#ab4ed2; stroke:none;" d="M95 190L99 243L100 243C100 227.144 103.644 204.152 95 190z"/>
<path style="fill:#e399fa; stroke:none;" d="M172 190L172 195L173 195L172 190z"/>
<path style="fill:#c87ae0; stroke:none;" d="M319 195L319 205L320 205L319 195z"/>
<path style="fill:#d7abea; stroke:none;" d="M333 198L333 203L334 203L333 198z"/>
<path style="fill:#ad4cd1; stroke:none;" d="M282 199L272 210C280.48 208.686 287.639 196.463 292 212L300 217C296.811 210.12 289.477 201.099 282 199z"/>
<path style="fill:#9d5fb4; stroke:none;" d="M171 203L171 232L172 232L171 203z"/>
<path style="fill:#e0a0ea; stroke:none;" d="M229 207L229 208L241 208L229 207z"/>
<path style="fill:#ca82e8; stroke:none;" d="M334 212L334 219L335 219L334 212z"/>
<path style="fill:#cfbcd2; stroke:none;" d="M320 213L320 219L321 219L320 213z"/>
<path style="fill:#cea4e3; stroke:none;" d="M119.333 214.667L119.667 215.333L119.333 214.667z"/>
<path style="fill:#be93d8; stroke:none;" d="M100 216L100 235L101 235L100 216z"/>
<path style="fill:#c59ce0; stroke:none;" d="M230 221L230 222L242 222L230 221z"/>
<path style="fill:#e9a3fb; stroke:none;" d="M456 228L456 237L457 237L456 228z"/>
<path style="fill:#c892e0; stroke:none;" d="M335 229L335 240L336 240L335 229z"/>
<path style="fill:#bc98d5; stroke:none;" d="M442 230L442 235L443 235L442 230z"/>
<path style="fill:#c78edb; stroke:none;" d="M171 232L171 238L172 238L171 232z"/>
<path style="fill:#de95f1; stroke:none;" d="M114 237L114 240L115 240L114 237z"/>
</svg>
