<?xml version="1.0" standalone="no"?>
<!DOCTYPE svg PUBLIC "-//W3C//DTD SVG 20010904//EN"
 "http://www.w3.org/TR/2001/REC-SVG-20010904/DTD/svg10.dtd">
<svg version="1.0" xmlns="http://www.w3.org/2000/svg"
 width="542.000000pt" height="313.000000pt" viewBox="0 0 542.000000 313.000000"
 preserveAspectRatio="xMidYMid meet">

<g transform="translate(0.000000,313.000000) scale(0.100000,-0.100000)"
fill="#000000" stroke="none">
<path d="M0 1565 l0 -1565 2710 0 2710 0 0 1565 0 1565 -2710 0 -2710 0 0
-1565z m4682 961 c96 -39 177 -116 225 -214 37 -75 38 -78 38 -192 0 -109 -2
-119 -32 -182 -34 -72 -103 -153 -169 -199 -137 -94 -348 -91 -491 6 -29 20
-53 34 -53 32 0 -29 88 -246 208 -512 185 -410 203 -529 93 -602 -44 -30 -129
-31 -214 -2 -177 59 -534 285 -842 533 -59 48 -109 85 -112 83 -2 -2 4 -124
12 -272 14 -242 14 -269 0 -291 -18 -28 -58 -40 -94 -28 -15 6 -84 79 -166
175 -77 92 -163 193 -192 225 l-51 59 -48 -48 c-116 -118 -274 -187 -423 -187
-136 1 -304 70 -413 170 -78 71 -123 130 -170 222 l-35 67 -12 -79 c-19 -128
-32 -358 -25 -457 6 -89 6 -92 -19 -117 -31 -30 -66 -33 -97 -8 -20 16 -25 40
-46 198 -35 260 -91 476 -140 539 -15 20 -16 19 -44 -14 -61 -72 -145 -320
-205 -606 -30 -143 -44 -168 -96 -168 -60 0 -69 25 -69 187 0 227 -38 402
-126 579 -76 155 -198 305 -323 399 -96 72 -111 89 -111 125 0 60 57 91 113
61 43 -22 165 -128 239 -207 129 -137 221 -293 279 -476 19 -57 37 -105 42
-105 4 0 7 5 7 11 0 31 86 224 124 279 118 169 253 140 340 -73 l23 -58 23 98
c19 83 57 201 84 265 10 21 0 24 -149 43 -106 13 -123 18 -142 41 -30 33 -29
69 2 100 23 23 30 24 88 18 34 -3 111 -14 172 -24 60 -10 110 -18 110 -17 15
33 112 150 161 195 130 117 280 168 468 159 135 -6 207 -29 313 -100 165 -110
273 -321 273 -532 0 -104 -14 -180 -51 -277 l-30 -77 133 -155 c73 -85 135
-153 136 -151 5 5 -43 784 -74 1190 -8 105 8 189 44 235 143 178 630 147 766
-49 53 -76 36 -169 -48 -275 -17 -21 -94 -93 -171 -159 -319 -273 -392 -371
-339 -452 16 -25 191 -170 339 -281 229 -173 516 -344 634 -378 71 -21 71 -21
71 15 0 54 -59 206 -203 519 -209 456 -256 738 -160 949 49 108 168 213 291
257 93 34 235 30 334 -10z"/>
<path d="M4422 2404 c-69 -18 -98 -34 -152 -82 -92 -81 -131 -207 -110 -359 6
-48 14 -91 16 -95 3 -5 15 3 26 17 26 33 69 33 113 -1 119 -90 275 -84 388 17
72 64 101 129 100 224 0 139 -84 242 -228 280 -71 18 -84 18 -153 -1z"/>
<path d="M3385 2351 c-51 -13 -95 -41 -107 -67 -9 -18 -8 -80 1 -247 8 -122
16 -242 20 -266 l6 -45 43 52 c24 29 96 96 160 149 202 168 268 230 293 278
l24 47 -32 27 c-56 47 -145 73 -268 77 -60 2 -123 0 -140 -5z"/>
<path d="M2239 2091 c-91 -29 -156 -71 -225 -143 -35 -38 -64 -72 -64 -77 0
-4 21 -16 48 -26 295 -107 525 -233 729 -399 44 -36 83 -66 85 -66 3 0 15 35
28 78 80 269 -51 548 -298 633 -73 25 -224 25 -303 0z"/>
<path d="M1837 1652 c-34 -85 -68 -204 -62 -211 3 -2 11 1 17 7 16 16 49 15
75 -3 12 -9 37 -46 55 -83 44 -89 160 -207 246 -250 179 -88 360 -61 502 74
58 55 59 58 43 76 -29 32 -204 162 -289 216 -157 98 -422 218 -525 237 l-35 7
-27 -70z"/>
</g>
</svg>
